<svg xmlns="http://www.w3.org/2000/svg" viewBox="0 0 800 600">
  <g fill="#61dafb">
    <path d="M400 0C178.8 0 0 178.8 0 400s178.8 400 400 400 400-178.8 400-400S621.2 0 400 0zm0 750c-193.6 0-350-156.4-350-350S206.4 50 400 50s350 156.4 350 350-156.4 350-350 350z"/>
    <path d="M400 150c-138.4 0-250 111.6-250 250s111.6 250 250 250 250-111.6 250-250-111.6-250-250-250zm0 450c-110.4 0-200-89.6-200-200s89.6-200 200-200 200 89.6 200 200-89.6 200-200 200z"/>
    <path d="M400 250c-82.8 0-150 67.2-150 150s67.2 150 150 150 150-67.2 150-150-67.2-150-150-150zm0 250c-55.2 0-100-44.8-100-100s44.8-100 100-100 100 44.8 100 100-44.8 100-100 100z"/>
  </g>
</svg>